<mxfile host="Electron" modified="2024-02-17T23:44:40.120Z" agent="Mozilla/5.0 (X11; Linux x86_64) AppleWebKit/537.36 (KHTML, like Gecko) draw.io/23.1.5 Chrome/120.0.6099.109 Electron/28.1.0 Safari/537.36" etag="k9-HJHHesxZkKjecO6lZ" version="23.1.5" type="device">
  <diagram name="Page-1" id="71akO1XMp-x3XkFRrFtN">
    <mxGraphModel dx="2214" dy="843" grid="1" gridSize="10" guides="1" tooltips="1" connect="1" arrows="1" fold="1" page="1" pageScale="1" pageWidth="850" pageHeight="1100" math="0" shadow="0">
      <root>
        <mxCell id="0" />
        <mxCell id="1" parent="0" />
        <mxCell id="HL9Dqaa0VAam4Z8SZ0WZ-2" value="ERPLibre" style="swimlane;whiteSpace=wrap;html=1;" parent="1" vertex="1">
          <mxGeometry x="60" y="260" width="820" height="880" as="geometry" />
        </mxCell>
        <mxCell id="HL9Dqaa0VAam4Z8SZ0WZ-13" value="" style="rounded=0;whiteSpace=wrap;html=1;" parent="HL9Dqaa0VAam4Z8SZ0WZ-2" vertex="1">
          <mxGeometry x="30" y="140" width="350" height="560" as="geometry" />
        </mxCell>
        <mxCell id="HL9Dqaa0VAam4Z8SZ0WZ-4" value="" style="ellipse;shape=cloud;whiteSpace=wrap;html=1;" parent="HL9Dqaa0VAam4Z8SZ0WZ-2" vertex="1">
          <mxGeometry x="400" y="79" width="370" height="380" as="geometry" />
        </mxCell>
        <mxCell id="HL9Dqaa0VAam4Z8SZ0WZ-7" style="edgeStyle=orthogonalEdgeStyle;rounded=0;orthogonalLoop=1;jettySize=auto;html=1;entryX=1;entryY=0.5;entryDx=0;entryDy=0;" parent="HL9Dqaa0VAam4Z8SZ0WZ-2" source="HL9Dqaa0VAam4Z8SZ0WZ-5" target="HL9Dqaa0VAam4Z8SZ0WZ-6" edge="1">
          <mxGeometry relative="1" as="geometry" />
        </mxCell>
        <mxCell id="HL9Dqaa0VAam4Z8SZ0WZ-8" value="Technopoïeses" style="edgeLabel;html=1;align=center;verticalAlign=middle;resizable=0;points=[];" parent="HL9Dqaa0VAam4Z8SZ0WZ-7" vertex="1" connectable="0">
          <mxGeometry x="0.3947" y="2" relative="1" as="geometry">
            <mxPoint y="-22" as="offset" />
          </mxGeometry>
        </mxCell>
        <mxCell id="HL9Dqaa0VAam4Z8SZ0WZ-5" value="Instance RobotLibre" style="swimlane;whiteSpace=wrap;html=1;" parent="HL9Dqaa0VAam4Z8SZ0WZ-2" vertex="1">
          <mxGeometry x="500" y="188" width="200" height="200" as="geometry" />
        </mxCell>
        <mxCell id="HL9Dqaa0VAam4Z8SZ0WZ-6" value="Composante sur domaine expertise" style="swimlane;whiteSpace=wrap;html=1;" parent="HL9Dqaa0VAam4Z8SZ0WZ-2" vertex="1">
          <mxGeometry x="130" y="223" width="235" height="130" as="geometry" />
        </mxCell>
        <mxCell id="HL9Dqaa0VAam4Z8SZ0WZ-11" value="Métadata du contexte Réseau" style="text;html=1;align=center;verticalAlign=middle;resizable=0;points=[];autosize=1;strokeColor=none;fillColor=none;" parent="HL9Dqaa0VAam4Z8SZ0WZ-6" vertex="1">
          <mxGeometry x="27.5" y="37" width="180" height="30" as="geometry" />
        </mxCell>
        <mxCell id="HL9Dqaa0VAam4Z8SZ0WZ-9" value="" style="curved=1;endArrow=classic;html=1;rounded=0;exitX=0.5;exitY=1;exitDx=0;exitDy=0;entryX=0;entryY=0.5;entryDx=0;entryDy=0;" parent="HL9Dqaa0VAam4Z8SZ0WZ-2" source="HL9Dqaa0VAam4Z8SZ0WZ-6" target="HL9Dqaa0VAam4Z8SZ0WZ-6" edge="1">
          <mxGeometry width="50" height="50" relative="1" as="geometry">
            <mxPoint x="230" y="450" as="sourcePoint" />
            <mxPoint x="280" y="400" as="targetPoint" />
            <Array as="points">
              <mxPoint x="210" y="450" />
              <mxPoint x="30" y="340" />
            </Array>
          </mxGeometry>
        </mxCell>
        <mxCell id="HL9Dqaa0VAam4Z8SZ0WZ-10" value="Regen" style="text;html=1;align=center;verticalAlign=middle;whiteSpace=wrap;rounded=0;" parent="HL9Dqaa0VAam4Z8SZ0WZ-2" vertex="1">
          <mxGeometry x="110" y="359" width="60" height="30" as="geometry" />
        </mxCell>
        <mxCell id="HL9Dqaa0VAam4Z8SZ0WZ-12" value="Réseau par DevOps" style="text;html=1;align=center;verticalAlign=middle;whiteSpace=wrap;rounded=0;" parent="HL9Dqaa0VAam4Z8SZ0WZ-2" vertex="1">
          <mxGeometry x="530" y="140" width="90" height="40" as="geometry" />
        </mxCell>
        <mxCell id="HL9Dqaa0VAam4Z8SZ0WZ-14" value="Code Generator" style="text;html=1;align=center;verticalAlign=middle;whiteSpace=wrap;rounded=0;" parent="HL9Dqaa0VAam4Z8SZ0WZ-2" vertex="1">
          <mxGeometry x="30" y="145" width="140" height="30" as="geometry" />
        </mxCell>
        <mxCell id="HL9Dqaa0VAam4Z8SZ0WZ-15" value="Build Technologie" style="swimlane;whiteSpace=wrap;html=1;" parent="HL9Dqaa0VAam4Z8SZ0WZ-2" vertex="1">
          <mxGeometry x="40" y="450" width="130" height="170" as="geometry" />
        </mxCell>
        <mxCell id="HL9Dqaa0VAam4Z8SZ0WZ-16" value="&lt;div align=&quot;left&quot;&gt;Python&lt;/div&gt;&lt;div align=&quot;left&quot;&gt;Javascript&lt;/div&gt;&lt;div align=&quot;left&quot;&gt;XML&lt;/div&gt;&lt;div align=&quot;left&quot;&gt;CSS&lt;/div&gt;&lt;div align=&quot;left&quot;&gt;Bash&lt;/div&gt;&lt;div align=&quot;left&quot;&gt;Makefile&lt;br&gt;&lt;/div&gt;" style="text;html=1;align=left;verticalAlign=middle;resizable=0;points=[];autosize=1;strokeColor=none;fillColor=none;" parent="HL9Dqaa0VAam4Z8SZ0WZ-15" vertex="1">
          <mxGeometry x="10" y="45" width="80" height="100" as="geometry" />
        </mxCell>
        <mxCell id="HL9Dqaa0VAam4Z8SZ0WZ-24" value="Technopoïeses Procedure Action" style="swimlane;whiteSpace=wrap;html=1;" parent="HL9Dqaa0VAam4Z8SZ0WZ-2" vertex="1">
          <mxGeometry x="320" y="470" width="380" height="170" as="geometry" />
        </mxCell>
        <mxCell id="HL9Dqaa0VAam4Z8SZ0WZ-25" value="&lt;div&gt;Définitions des tâches -&amp;gt; techniques sur création de technologies&lt;/div&gt;&lt;div&gt;Documenter via un support visuel : affichage sur site web&lt;/div&gt;&lt;div&gt;Reconnu, officiellement accepté par la communauté&lt;br&gt;&lt;/div&gt;" style="text;html=1;align=left;verticalAlign=middle;resizable=0;points=[];autosize=1;strokeColor=none;fillColor=none;" parent="HL9Dqaa0VAam4Z8SZ0WZ-24" vertex="1">
          <mxGeometry x="10" y="65" width="370" height="60" as="geometry" />
        </mxCell>
        <mxCell id="yzaUlIPQqn0vAzBn3_-S-1" value="Version&lt;br&gt;Serveur et/ou client" style="text;html=1;align=center;verticalAlign=middle;whiteSpace=wrap;rounded=0;" vertex="1" parent="HL9Dqaa0VAam4Z8SZ0WZ-2">
          <mxGeometry x="175" y="480" width="115" height="30" as="geometry" />
        </mxCell>
        <mxCell id="HL9Dqaa0VAam4Z8SZ0WZ-3" value="Système d&#39;autopoïèse ERPLibre Industrie 4.0" style="rounded=0;whiteSpace=wrap;html=1;fillColor=#008a00;strokeColor=#005700;fontSize=21;fontColor=#ffffff;" parent="1" vertex="1">
          <mxGeometry x="320" y="190" width="430" height="60" as="geometry" />
        </mxCell>
        <mxCell id="HL9Dqaa0VAam4Z8SZ0WZ-21" value="Developpeur externe" style="shape=umlActor;verticalLabelPosition=bottom;verticalAlign=top;html=1;outlineConnect=0;" parent="1" vertex="1">
          <mxGeometry x="-160" y="580" width="30" height="60" as="geometry" />
        </mxCell>
        <mxCell id="HL9Dqaa0VAam4Z8SZ0WZ-23" value="Utilisateur de ERP" style="shape=umlActor;verticalLabelPosition=bottom;verticalAlign=top;html=1;outlineConnect=0;" parent="1" vertex="1">
          <mxGeometry x="-110" y="680" width="30" height="60" as="geometry" />
        </mxCell>
      </root>
    </mxGraphModel>
  </diagram>
</mxfile>
